# xmcd
#
# Track frame offsets:
#	150
#	16875
#	31276
#	48006
#	62564
#	76884
#	92027
#	109735
#	127539
#	142629
#	157416
#	172457
#	185812
#	200747
#	217024
#	229601
#	247156
#	264581
#	277236
#	292908
#	307669
#
# Disc length: 4301 seconds
#
# Revision: 1
# Processed by: cddbd v1.5.2PL0 Copyright (c) Steve Scherf et al.
# Submitted via: EasyCDDAExtractor 11.5.0.1
#
DISCID=2c10cb15
DTITLE=Various Artist - NCT 101
DYEAR=2007
DGENRE=Country
TTITLE0=Carrie Underwood - So Small
TTITLE1=Kellie Pickler - Things That Never Cross A Man's Mind
TTITLE2=Big and Rich - Between Raising Hell And Amazing Grace
TTITLE3=Van Zant - Goes Down Easy
TTITLE4=Trace Adkins - I Got My Game On
TTITLE5=Taylor Swift - Our Song
TTITLE6=George Strait - How 'Bout Them Cowgirls
TTITLE7=Little Big Town - I'm With The Band
TTITLE8=Andy Griggs - What If It's Me
TTITLE9=The Eagles - How Long
TTITLE10=Jason Aldean - Laughed Until We Cried
TTITLE11=Sammy Sadler - Heart Shaped Like Texas
TTITLE12=Trisha Yearwood - Heaven, Heartache And The Power Of Love
TTITLE13=Bomshel - The Power Of One
TTITLE14=Mark Chesnutt - Rolling With The Flow
TTITLE15=James Otto - Just Got Started Lovin' You
TTITLE16=Eric Church - Sinners Like Me
TTITLE17=Cowboy Crush - Miss Difficult
TTITLE18=Jeff Griffith - I'm Your Radio
TTITLE19=Pirates Of The Mississippi - Heaven And A Dixie Night
TTITLE20=Kristina Cornell - It's A Girl Thing
EXTD=
EXTT0=
EXTT1=
EXTT2=
EXTT3=
EXTT4=
EXTT5=
EXTT6=
EXTT7=
EXTT8=
EXTT9=
EXTT10=
EXTT11=
EXTT12=
EXTT13=
EXTT14=
EXTT15=
EXTT16=
EXTT17=
EXTT18=
EXTT19=
EXTT20=
PLAYORDER=
